<svg id="drawing" xmlns="http://www.w3.org/2000/svg" version="1.1" xmlns:xlink="http://www.w3.org/1999/xlink" xmlns:svgjs="http://svgjs.com/svgjs" width="832" height="524" viewBox="103 206 832 524"><defs id="SvgjsDefs1122"><marker id="SvgjsMarker1135" markerWidth="16.23606797749979" markerHeight="10.550836550532098" refX="-1" refY="3.8990363547948754" viewBox="-1 -1.3763819204711738 16.23606797749979 10.550836550532098" orient="auto" markerUnits="userSpaceOnUse"><path id="SvgjsPath1136" d="M12 3.8990363547948754L0 7.798072709589751V0Z " stroke="#323232" stroke-width="2" fill="#323232" transform="matrix(1,0,0,1,0,0)"></path></marker><marker id="SvgjsMarker1152" markerWidth="16.23606797749979" markerHeight="10.550836550532098" refX="15.23606797749979" refY="3.8990363547948754" viewBox="-1 -1.3763819204711738 16.23606797749979 10.550836550532098" orient="auto" markerUnits="userSpaceOnUse"><path id="SvgjsPath1153" d="M12 3.8990363547948754L0 7.798072709589751V0Z " stroke="#323232" stroke-width="2" fill="#323232" transform="matrix(-1,1.2246467991473532e-16,-1.2246467991473532e-16,-1,14.23606797749979,7.79807270958975)"></path></marker><marker id="SvgjsMarker1154" markerWidth="16.23606797749979" markerHeight="10.550836550532098" refX="-1" refY="3.8990363547948754" viewBox="-1 -1.3763819204711738 16.23606797749979 10.550836550532098" orient="auto" markerUnits="userSpaceOnUse"><path id="SvgjsPath1155" d="M12 3.8990363547948754L0 7.798072709589751V0Z " stroke="#323232" stroke-width="2" fill="#323232" transform="matrix(1,0,0,1,0,0)"></path></marker><marker id="SvgjsMarker1176" markerWidth="16.23606797749979" markerHeight="10.550836550532098" refX="-1" refY="3.8990363547948754" viewBox="-1 -1.3763819204711738 16.23606797749979 10.550836550532098" orient="auto" markerUnits="userSpaceOnUse"><path id="SvgjsPath1177" d="M12 3.8990363547948754L0 7.798072709589751V0Z " stroke="#323232" stroke-width="2" fill="#323232" transform="matrix(1,0,0,1,0,0)"></path></marker><marker id="SvgjsMarker1187" markerWidth="16.23606797749979" markerHeight="10.550836550532098" refX="-1" refY="3.8990363547948754" viewBox="-1 -1.3763819204711738 16.23606797749979 10.550836550532098" orient="auto" markerUnits="userSpaceOnUse"><path id="SvgjsPath1188" d="M12 3.8990363547948754L0 7.798072709589751V0Z " stroke="#323232" stroke-width="2" fill="#323232" transform="matrix(1,0,0,1,0,0)"></path></marker><marker id="SvgjsMarker1198" markerWidth="16.23606797749979" markerHeight="10.550836550532098" refX="-1" refY="3.8990363547948754" viewBox="-1 -1.3763819204711738 16.23606797749979 10.550836550532098" orient="auto" markerUnits="userSpaceOnUse"><path id="SvgjsPath1199" d="M12 3.8990363547948754L0 7.798072709589751V0Z " stroke="#323232" stroke-width="2" fill="#323232" transform="matrix(1,0,0,1,0,0)"></path></marker><marker id="SvgjsMarker1210" markerWidth="16.23606797749979" markerHeight="10.550836550532098" refX="-1" refY="3.8990363547948754" viewBox="-1 -1.3763819204711738 16.23606797749979 10.550836550532098" orient="auto" markerUnits="userSpaceOnUse"><path id="SvgjsPath1211" d="M12 3.8990363547948754L0 7.798072709589751V0Z " stroke="#323232" stroke-width="2" fill="#323232" transform="matrix(1,0,0,1,0,0)"></path></marker><marker id="SvgjsMarker1217" markerWidth="16.23606797749979" markerHeight="10.550836550532098" refX="-1" refY="3.8990363547948754" viewBox="-1 -1.3763819204711738 16.23606797749979 10.550836550532098" orient="auto" markerUnits="userSpaceOnUse"><path id="SvgjsPath1218" d="M12 3.8990363547948754L0 7.798072709589751V0Z " stroke="#323232" stroke-width="2" fill="#323232" transform="matrix(1,0,0,1,0,0)"></path></marker></defs><g id="SvgjsG1123"><path id="SvgjsPath1124" d="M103 206H935V730H103V206Z " fill-opacity="1" fill="#ffffff"></path><g id="SvgjsG1125"><g id="SvgjsG1126" transform="translate(815 338)" opacity="1"><path id="SvgjsPath1127" d="M0 0L100 0L100 70L0 70Z " stroke-dasharray="none" stroke="#323232" stroke-width="2" fill="#cfcfcf" opacity="1"></path><g id="SvgjsG1128" transform="matrix(1 0 0 1 10 15)" fill="#ffffff"><text id="SvgjsText1129" font-family="微软雅黑,黑体,Arial,宋体" fill="#000000" font-size="16" font-weight="bold" font-style="normal" text-anchor="middle" text-decoration="blink" x="40" y="14">出租车</text><text id="SvgjsText1130" font-family="微软雅黑,黑体,Arial,宋体" fill="#000000" font-size="16" font-weight="bold" font-style="normal" text-anchor="middle" text-decoration="blink" x="40" y="34">模拟器</text></g></g><g id="SvgjsG1131" transform="translate(123 226)" opacity="1"><path id="SvgjsPath1132" d="M0 0L496 0L496 316L0 316Z " stroke-dasharray="15 6" stroke="#323232" stroke-width="3" fill="#ffffff" opacity="1"></path></g><g id="SvgjsG1133"><path id="SvgjsPath1134" d="M815 373L693 373L693 373L586.2360679774998 373 " stroke-dasharray="none" stroke="#323232" stroke-width="2" fill="none" marker-end="url(#SvgjsMarker1135)"></path><g id="SvgjsG1137" transform="matrix(1 0 0 1 700.6180339887499 364.875)" fill="#ffffff"><path id="SvgjsPath1138" d="M0 0H0V0H0V0Z " fill="#ffffff" transform="translate(0 0)"></path><text id="SvgjsText1139" font-family="Microsoft Yahei,宋体" fill="#000000" font-size="13" font-weight="normal" font-style="normal" text-anchor="middle" text-decoration="blink" x="0" y="0"></text></g></g><g id="SvgjsG1140" transform="translate(667 380)" opacity="1"><path id="SvgjsPath1141" d="M0 0L105 0L105 68L0 68Z " stroke-dasharray="none" stroke-width="0" stroke="#323232" fill="none" opacity="1"></path><g id="SvgjsG1142" transform="matrix(1 0 0 1 0 4)" fill="#ffffff"><text id="SvgjsText1143" font-family="微软雅黑,黑体,Arial,宋体" fill="#000000" font-size="16" font-weight="bold" font-style="normal" text-anchor="middle" text-decoration="blink" x="52.5" y="14">发送出租车的</text><text id="SvgjsText1144" font-family="微软雅黑,黑体,Arial,宋体" fill="#000000" font-size="16" font-weight="bold" font-style="normal" text-anchor="middle" text-decoration="blink" x="52.5" y="34">状态信息</text><text id="SvgjsText1145" font-family="微软雅黑,黑体,Arial,宋体" fill="#000000" font-size="16" font-weight="bold" font-style="normal" text-anchor="middle" text-decoration="blink" x="52.5" y="54">(经纬度等)</text></g></g><g id="SvgjsG1146" transform="translate(477 639)" opacity="1"><path id="SvgjsPath1147" d="M0 0L88 0L88 71L0 71Z " stroke-dasharray="none" stroke="#323232" stroke-width="2" fill="#b8b8b8" opacity="1"></path><g id="SvgjsG1148" transform="matrix(1 0 0 1 10 25.5)" fill="#ffffff"><text id="SvgjsText1149" font-family="微软雅黑,黑体,Arial,宋体" fill="#000000" font-size="16" font-weight="bold" font-style="normal" text-anchor="middle" text-decoration="blink" x="34" y="14">UI界面</text></g></g><g id="SvgjsG1150"><path id="SvgjsPath1151" d="M521 623.7639320225002L521 523.5L521 523.5L521 423.2360679774998 " stroke-dasharray="none" stroke="#323232" stroke-width="2" fill="none" marker-start="url(#SvgjsMarker1152)" marker-end="url(#SvgjsMarker1154)"></path><g id="SvgjsG1156" transform="matrix(1 0 0 1 521 515.375)" fill="#ffffff"><path id="SvgjsPath1157" d="M0 0H0V0H0V0Z " fill="#ffffff" transform="translate(0 0)"></path><text id="SvgjsText1158" font-family="Microsoft Yahei,宋体" fill="#000000" font-size="13" font-weight="normal" font-style="normal" text-anchor="middle" text-decoration="blink" x="0" y="0"></text></g></g><g id="SvgjsG1159" transform="translate(335 568)" opacity="1"><path id="SvgjsPath1160" d="M0 0L172 0L172 52L0 52Z " stroke-dasharray="none" stroke-width="0" stroke="#323232" fill="none" opacity="1"></path><g id="SvgjsG1161" transform="matrix(1 0 0 1 0 6)" fill="#ffffff"><text id="SvgjsText1162" font-family="微软雅黑,黑体,Arial,宋体" fill="#000000" font-size="16" font-weight="bold" font-style="normal" text-anchor="middle" text-decoration="blink" x="86" y="14">查询与显示</text><text id="SvgjsText1163" font-family="微软雅黑,黑体,Arial,宋体" fill="#000000" font-size="16" font-weight="bold" font-style="normal" text-anchor="middle" text-decoration="blink" x="86" y="34">(范围查询和NN查询)</text></g></g><g id="SvgjsG1164" transform="translate(471 338)" opacity="1"><path id="SvgjsPath1165" d="M0 0L100 0L100 70L0 70Z " stroke-dasharray="none" stroke="#323232" stroke-width="2" fill="#cfcfcf" opacity="1"></path><g id="SvgjsG1166" transform="matrix(1 0 0 1 10 6.875)" fill="#ffffff"><text id="SvgjsText1167" font-family="微软雅黑,黑体,Arial,宋体" fill="#000000" font-size="15" font-weight="bold" font-style="normal" text-anchor="middle" text-decoration="blink" x="40" y="14">出租车数据</text><text id="SvgjsText1168" font-family="微软雅黑,黑体,Arial,宋体" fill="#000000" font-size="15" font-weight="bold" font-style="normal" text-anchor="middle" text-decoration="blink" x="40" y="32.75">采集与查询</text><text id="SvgjsText1169" font-family="微软雅黑,黑体,Arial,宋体" fill="#000000" font-size="15" font-weight="bold" font-style="normal" text-anchor="middle" text-decoration="blink" x="40" y="51.5">服务</text></g></g><g id="SvgjsG1170" transform="translate(283 240)" opacity="1"><path id="SvgjsPath1171" d="M0 0L120 0L120 71L0 71Z " stroke-dasharray="none" stroke="#323232" stroke-width="2" fill="#ffff00" opacity="1"></path><g id="SvgjsG1172" transform="matrix(1 0 0 1 10 25.5)" fill="#ffffff"><text id="SvgjsText1173" font-family="微软雅黑,黑体,Arial,宋体" fill="#000000" font-size="16" font-weight="bold" font-style="normal" text-anchor="middle" text-decoration="blink" x="50" y="14">索引更新模块</text></g></g><g id="SvgjsG1174"><path id="SvgjsPath1175" d="M471 373L437 373L437 275.5L418.2360679774998 275.5 " stroke-dasharray="none" stroke="#323232" stroke-width="2" fill="none" marker-end="url(#SvgjsMarker1176)"></path><g id="SvgjsG1178" transform="matrix(1 0 0 1 437 323.74303398874986)" fill="#ffffff"><path id="SvgjsPath1179" d="M0 0H0V0H0V0Z " fill="#ffffff" transform="translate(0 0)"></path><text id="SvgjsText1180" font-family="Microsoft Yahei,宋体" fill="#000000" font-size="13" font-weight="normal" font-style="normal" text-anchor="middle" text-decoration="blink" x="0" y="0"></text></g></g><g id="SvgjsG1181" transform="translate(283 456)" opacity="1"><path id="SvgjsPath1182" d="M0 0L120 0L120 70L0 70Z " stroke-dasharray="none" stroke="#323232" stroke-width="2" fill="#ff0000" opacity="1"></path><g id="SvgjsG1183" transform="matrix(1 0 0 1 10 25)" fill="#ffffff"><text id="SvgjsText1184" font-family="微软雅黑,黑体,Arial,宋体" fill="#000000" font-size="16" font-weight="bold" font-style="normal" text-anchor="middle" text-decoration="blink" x="50" y="14">索引查询模块</text></g></g><g id="SvgjsG1185"><path id="SvgjsPath1186" d="M471 373L437 373L437 491L418.2360679774998 491 " stroke-dasharray="none" stroke="#323232" stroke-width="2" fill="none" marker-end="url(#SvgjsMarker1187)"></path><g id="SvgjsG1189" transform="matrix(1 0 0 1 437 416.25696601125014)" fill="#ffffff"><path id="SvgjsPath1190" d="M0 0H0V0H0V0Z " fill="#ffffff" transform="translate(0 0)"></path><text id="SvgjsText1191" font-family="Microsoft Yahei,宋体" fill="#000000" font-size="13" font-weight="normal" font-style="normal" text-anchor="middle" text-decoration="blink" x="0" y="0"></text></g></g><g id="SvgjsG1192" transform="translate(283 349)" opacity="1"><path id="SvgjsPath1193" d="M0 0L120 0L120 70L0 70Z " stroke-dasharray="none" stroke="#323232" stroke-width="2" fill="#ff0000" opacity="1"></path><g id="SvgjsG1194" transform="matrix(1 0 0 1 10 25)" fill="#ffffff"><text id="SvgjsText1195" font-family="微软雅黑,黑体,Arial,宋体" fill="#000000" font-size="16" font-weight="bold" font-style="normal" text-anchor="middle" text-decoration="blink" x="50" y="14">坐标转换模块</text></g></g><g id="SvgjsG1196"><path id="SvgjsPath1197" d="M343 456L343 437.5L343 437.5L343 434.2360679774998 " stroke-dasharray="none" stroke="#323232" stroke-width="2" fill="none" marker-end="url(#SvgjsMarker1198)"></path><g id="SvgjsG1200" transform="matrix(1 0 0 1 343 436.99303398874986)" fill="#ffffff"><path id="SvgjsPath1201" d="M0 0H0V0H0V0Z " fill="#ffffff" transform="translate(0 0)"></path><text id="SvgjsText1202" font-family="Microsoft Yahei,宋体" fill="#000000" font-size="13" font-weight="normal" font-style="normal" text-anchor="middle" text-decoration="blink" x="0" y="0"></text></g></g><g id="SvgjsG1203" transform="translate(140 362)" opacity="1"><path id="SvgjsPath1204" d="M16.349999999999998 0L97.16666666666667 0C112.22727272727273 0 112.22727272727273 71 97.16666666666667 71L16.349999999999998 71C-5.45 71 -5.45 0 16.349999999999998 0ZM97.16666666666667 0C82.375 0 82.375 71 97.16666666666667 71C82.375 71 82.375 0 97.16666666666667 0 " stroke-dasharray="none" stroke="#323232" stroke-width="2" fill="#ffff00" opacity="1"></path><g id="SvgjsG1205" transform="matrix(1 0 0 1 0 15.5)" fill="#ffffff"><text id="SvgjsText1206" font-family="微软雅黑,黑体,Arial,宋体" fill="#000000" font-size="16" font-weight="bold" font-style="normal" text-anchor="middle" text-decoration="blink" x="43.6" y="14">内存</text><text id="SvgjsText1207" font-family="微软雅黑,黑体,Arial,宋体" fill="#000000" font-size="16" font-weight="bold" font-style="normal" text-anchor="middle" text-decoration="blink" x="43.6" y="34">索引结构</text></g></g><g id="SvgjsG1208"><path id="SvgjsPath1209" d="M283 275.5L194.5 275.5L194.5 346.7639320225002 " stroke-dasharray="none" stroke="#323232" stroke-width="2" fill="none" marker-end="url(#SvgjsMarker1210)"></path><g id="SvgjsG1212" transform="matrix(1 0 0 1 203.1180339887499 267.375)" fill="#ffffff"><path id="SvgjsPath1213" d="M0 0H0V0H0V0Z " fill="#ffffff" transform="translate(0 0)"></path><text id="SvgjsText1214" font-family="Microsoft Yahei,宋体" fill="#000000" font-size="13" font-weight="normal" font-style="normal" text-anchor="middle" text-decoration="blink" x="0" y="0"></text></g></g><g id="SvgjsG1215"><path id="SvgjsPath1216" d="M283 491L194.5 491L194.5 448.2360679774998 " stroke-dasharray="none" stroke="#323232" stroke-width="2" fill="none" marker-end="url(#SvgjsMarker1217)"></path><g id="SvgjsG1219" transform="matrix(1 0 0 1 217.3680339887499 482.875)" fill="#ffffff"><path id="SvgjsPath1220" d="M0 0H0V0H0V0Z " fill="#ffffff" transform="translate(0 0)"></path><text id="SvgjsText1221" font-family="Microsoft Yahei,宋体" fill="#000000" font-size="13" font-weight="normal" font-style="normal" text-anchor="middle" text-decoration="blink" x="0" y="0"></text></g></g><g id="SvgjsG1222" transform="translate(529 419)" opacity="1"><path id="SvgjsPath1223" d="M0 0L64 0L64 78L0 78Z " stroke-dasharray="none" stroke-width="0" stroke="#323232" fill="none" opacity="1"></path><g id="SvgjsG1224" transform="matrix(1 0 0 1 0 6.5)" fill="#ffffff"><text id="SvgjsText1225" font-family="Arial,宋体" fill="#000000" font-size="13" font-weight="bold" font-style="normal" text-anchor="middle" text-decoration="blink" x="32" y="12">10001</text><text id="SvgjsText1226" font-family="Arial,宋体" fill="#000000" font-size="13" font-weight="bold" font-style="normal" text-anchor="middle" text-decoration="blink" x="32" y="28.25">10002</text><text id="SvgjsText1227" font-family="Arial,宋体" fill="#000000" font-size="13" font-weight="bold" font-style="normal" text-anchor="middle" text-decoration="blink" x="32" y="44.5">---</text><text id="SvgjsText1228" font-family="Arial,宋体" fill="#000000" font-size="13" font-weight="bold" font-style="normal" text-anchor="middle" text-decoration="blink" x="32" y="60.75">10007</text></g></g><g id="SvgjsG1229" transform="translate(460 489)" opacity="1"><path id="SvgjsPath1230" d="M0 0L55 0L55 40L0 40Z " stroke-dasharray="none" stroke-width="0" stroke="#323232" fill="none" opacity="1"></path><g id="SvgjsG1231" transform="matrix(1 0 0 1 0 11.875)" fill="#ffffff"><text id="SvgjsText1232" font-family="Arial,宋体" fill="#000000" font-size="13" font-weight="bold" font-style="normal" text-anchor="middle" text-decoration="blink" x="27.5" y="12">Http请求</text></g></g><g id="SvgjsG1233" transform="translate(670 334)" opacity="1"><path id="SvgjsPath1234" d="M0 0L72 0L72 34L0 34Z " stroke-dasharray="none" stroke-width="0" stroke="#323232" fill="none" opacity="1"></path><g id="SvgjsG1235" transform="matrix(1 0 0 1 0 8.875)" fill="#ffffff"><text id="SvgjsText1236" font-family="Arial,宋体" fill="#000000" font-size="13" font-weight="bold" font-style="normal" text-anchor="middle" text-decoration="blink" x="36" y="12">RPC请求</text></g></g></g></g></svg>